<svg width="87" height="42" viewBox="0 0 87 42" fill="none" xmlns="http://www.w3.org/2000/svg">
<path d="M48.8828 25.2521C48.2999 25.2521 47.7656 25.0958 47.3771 24.7831L40.1888 19.3105C39.7031 18.9587 39.7031 18.3332 40.1402 17.9423C40.5773 17.5514 41.3544 17.5514 41.8401 17.9032L49.0285 23.3758L52.8655 18.9977C53.254 18.6068 53.8369 18.3332 54.4683 18.2941C55.0511 18.2159 55.7311 18.4114 56.1682 18.7632L61.0252 22.3595L65.9308 15.9878C66.3193 15.5187 67.0479 15.4015 67.6307 15.7142C68.2135 16.0269 68.3592 16.6133 67.9707 17.0823L62.7737 23.454C62.4337 23.884 61.8509 24.1967 61.1709 24.2358C60.5395 24.314 59.8595 24.1185 59.3738 23.7667L54.5168 20.1704L50.6798 24.5485C50.2913 24.9394 49.7084 25.213 49.077 25.2521C48.9799 25.2521 48.9313 25.2521 48.8828 25.2521Z" fill="#011833"/>
<path d="M85.213 41.9826C84.8244 41.9826 84.3873 41.8263 84.193 41.5136L54.7597 2.0327L25.3264 41.5136C24.9864 41.9826 24.2093 42.139 23.675 41.8654C23.0922 41.5917 22.8979 41.0054 23.2379 40.5363L52.8169 0.820889C53.6426 -0.27363 55.8282 -0.27363 56.6539 0.820889L86.2329 40.4972C86.5729 40.9663 86.3786 41.5527 85.7958 41.8263C85.6501 41.9436 85.4558 41.9826 85.213 41.9826Z" fill="#011833"/>
<path d="M1.23583 41.9826C1.04155 41.9826 0.798704 41.9435 0.604425 41.8263C0.0215871 41.5526 -0.172693 40.9663 0.167296 40.4972L21.0523 12.5088C21.878 11.4143 24.0636 11.4143 24.8893 12.5088L35.5261 26.7766C35.8661 27.2457 35.6718 27.8321 35.089 28.1057C34.5061 28.3793 33.7776 28.2229 33.4376 27.7539L22.9465 13.6815L2.25579 41.4354C2.06151 41.8263 1.67296 41.9826 1.23583 41.9826Z" fill="#011833"/>
</svg>
